<?xml version="1.0" standalone="no"?>
<svg version="1.0" xmlns="http://www.w3.org/2000/svg"
 width="1300.000000pt" height="1389.000000pt" viewBox="0 0 1300.000000 1389.000000"
 preserveAspectRatio="xMidYMid meet">

<g transform="translate(0.000000,1389.000000) scale(0.100000,-0.100000)">
<path d="M6435 7195 c-78 -17 -149 -47 -375 -160 -215 -107 -284 -134 -440
-169 -232 -51 -333 -61 -645 -61 -224 1 -318 5 -415 18 -273 39 -551 109 -860
217 -207 72 -289 68 -358 -15 -55 -68 -63 -151 -36 -393 27 -241 62 -384 142
-577 182 -444 293 -670 411 -842 107 -156 335 -390 526 -540 480 -377 1071
-592 1852 -673 308 -32 466 -26 793 30 420 72 687 148 927 266 458 225 928
663 1290 1204 120 179 259 433 328 600 14 36 35 82 46 103 43 85 97 489 87
652 -9 137 -49 198 -147 225 -61 16 -101 9 -424 -76 -485 -127 -716 -173 -976
-194 -574 -44 -1048 60 -1421 310 -134 90 -183 102 -305 75z m202 -276 c184
-119 439 -226 663 -279 204 -47 290 -55 610 -55 438 1 587 24 1218 187 194 50
355 88 359 84 16 -16 -35 -470 -55 -487 -4 -3 -216 -55 -472 -114 -967 -224
-905 -208 -908 -233 -4 -23 -35 -31 -47 -12 -5 8 -11 7 -20 0 -8 -7 -27 -9
-43 -5 -20 4 -168 -26 -465 -95 -533 -123 -636 -140 -917 -147 -355 -9 -501
11 -1094 152 -251 60 -407 93 -423 89 -16 -4 -28 -2 -34 7 -6 11 -11 11 -21 1
-19 -19 -47 -14 -59 12 -10 20 -32 28 -192 65 -100 23 -402 95 -671 159 l-490
117 -8 30 c-12 43 -45 286 -53 383 -6 75 -5 82 12 82 10 0 83 -23 163 -51 729
-255 1435 -303 2060 -140 144 37 195 58 444 183 308 154 309 154 443 67z
m-2683 -874 c753 -179 963 -229 1096 -260 80 -19 277 -66 438 -104 161 -39
339 -79 395 -90 391 -75 849 -72 1237 9 74 16 533 122 1020 235 1216 284 1182
276 1188 271 2 -3 -19 -51 -48 -108 -264 -520 -665 -999 -1090 -1302 -344
-246 -637 -353 -1229 -451 -276 -45 -408 -52 -631 -31 -898 84 -1527 340
-2023 825 -211 206 -297 324 -424 582 -64 129 -213 467 -213 483 0 9 -3 10
284 -59z"/>
<path d="M893 438 c-30 -32 -31 -78 -3 -78 25 0 32 17 28 65 l-3 37 -22 -24z"/>
<path d="M11800 580 c0 -33 3 -41 16 -38 26 5 41 35 28 56 -6 9 -19 18 -28 20
-13 3 -16 -5 -16 -38z"/>
<path d="M12440 601 c0 -12 6 -21 16 -21 9 0 14 7 12 17 -5 25 -28 28 -28 4z"/>
<path d="M11450 555 c0 -8 6 -15 14 -15 8 0 16 7 20 15 4 10 -1 15 -14 15 -11
0 -20 -7 -20 -15z"/>
<path d="M11534 586 c-8 -22 3 -49 19 -43 6 2 12 14 12 27 0 27 -22 39 -31 16z"/>
<path d="M11625 590 c-3 -5 3 -10 15 -10 12 0 18 5 15 10 -3 6 -10 10 -15 10
-5 0 -12 -4 -15 -10z"/>
<path d="M11657 333 c-12 -11 -8 -23 8 -23 8 0 15 7 15 15 0 16 -12 20 -23 8z"/>
<path d="M11807 333 c-12 -11 -8 -23 8 -23 8 0 15 7 15 15 0 16 -12 20 -23 8z"/>
<path d="M12283 344 c-8 -21 13 -42 28 -27 13 13 5 43 -11 43 -6 0 -13 -7 -17
-16z"/>
</g>
</svg>