<?xml version="1.0" encoding="UTF-8"?>
<svg version="1.0" xmlns="http://www.w3.org/2000/svg"
 width="233.000000pt" height="300.000000pt" viewBox="0 0 233.000000 300.000000"
 preserveAspectRatio="xMidYMid meet">
<g transform="translate(0.000000,300.000000) scale(0.100000,-0.100000)"
fill="#000000" stroke="none">
<path d="M1117 2616 c-26 -44 -68 -106 -92 -137 l-45 -57 -81 42 c-78 39 -85
41 -173 41 -83 0 -97 -3 -158 -33 -36 -18 -82 -51 -103 -73 -50 -55 -93 -151
-101 -224 -4 -33 -12 -63 -18 -67 -6 -4 -57 -8 -113 -8 -98 0 -114 -4 -94 -26
23 -25 131 -250 131 -274 0 -4 -19 -15 -42 -26 -53 -24 -139 -107 -165 -159
-74 -147 -43 -316 79 -432 29 -27 62 -54 72 -60 19 -11 19 -12 -2 -62 -12 -29
-35 -72 -52 -97 -16 -25 -30 -49 -30 -53 0 -5 62 -11 138 -14 202 -9 189 -2
194 -105 5 -107 35 -180 103 -247 111 -112 277 -136 431 -63 53 24 47 30 121
-101 33 -60 49 -80 55 -70 37 63 129 204 153 234 l30 36 59 -35 c216 -130 476
-20 542 229 8 28 14 64 14 81 0 41 10 44 131 44 54 0 99 2 99 4 0 2 -20 42
-46 89 -41 79 -97 208 -91 212 1 2 18 10 37 20 132 68 220 218 207 356 -9 106
-82 228 -166 279 -22 14 -41 29 -41 33 0 12 55 118 84 160 14 21 26 39 26 41
0 2 -64 6 -142 9 -209 9 -195 2 -200 107 -3 73 -9 98 -36 153 -36 73 -95 131
-170 168 -40 21 -62 24 -152 24 -93 0 -112 -4 -162 -27 l-58 -27 -29 42 c-15
23 -41 66 -56 95 -15 29 -30 54 -34 56 -3 2 -27 -33 -54 -78z m63 31 c0 -24
77 -134 154 -221 135 -151 159 -208 136 -322 -6 -33 -32 -101 -57 -152 -41
-83 -48 -93 -67 -87 -56 18 -81 16 -119 -9 -32 -22 -37 -23 -33 -9 3 10 26
114 51 232 l45 213 -57 104 c-32 57 -62 104 -68 104 -5 0 -36 -47 -67 -105
l-57 -104 50 -228 c27 -125 49 -230 49 -232 0 -2 -9 4 -21 15 -17 15 -36 19
-88 18 l-68 0 -35 65 c-47 85 -78 179 -78 233 1 64 27 112 129 233 51 61 114
145 139 187 46 75 62 92 62 65z m454 -128 c72 -27 148 -96 182 -166 22 -43 29
-75 32 -139 l5 -84 -25 0 c-23 0 -26 5 -32 49 -20 155 -162 275 -321 274 -38
-1 -82 -6 -96 -11 -23 -9 -30 -7 -50 14 -28 30 -21 39 57 64 80 26 179 25 248
-1z m-757 -64 c77 -34 92 -50 71 -72 -15 -14 -21 -14 -65 3 -72 28 -173 25
-245 -8 -90 -42 -166 -135 -185 -229 -3 -16 -11 -29 -17 -29 -6 0 -22 -3 -35
-7 -24 -6 -24 -6 -17 50 17 153 107 270 239 313 67 22 180 13 254 -21z m342
-74 l51 -90 -45 -210 c-25 -115 -45 -223 -45 -240 0 -48 -17 -45 -25 5 -3 26
-26 136 -49 246 l-43 200 50 89 c27 49 51 89 53 89 1 0 25 -40 53 -89z m341
43 c104 -31 182 -109 209 -209 20 -72 20 -72 -66 -71 -67 1 -84 -3 -124 -26
-25 -15 -62 -45 -82 -67 -21 -23 -37 -39 -37 -37 0 2 7 23 15 46 37 105 9 223
-75 314 -46 50 -49 44 25 59 42 9 83 6 135 -9z m-692 -49 c29 -9 52 -19 52
-22 0 -4 -9 -16 -19 -27 -73 -79 -84 -178 -36 -301 4 -11 -8 -2 -27 20 -20 22
-60 54 -89 70 -46 25 -65 30 -129 30 -41 0 -92 -4 -112 -8 -46 -10 -47 -2 -14
69 70 150 215 216 374 169z m-143 -264 c22 -10 62 -40 89 -67 47 -46 136 -172
136 -191 0 -5 -11 -19 -25 -31 -29 -26 -40 -60 -32 -109 l6 -36 -32 29 c-18
17 -81 74 -142 129 -60 54 -126 114 -146 132 l-36 34 -122 3 c-67 1 -124 0
-126 -4 -2 -3 23 -52 57 -108 l60 -102 187 -59 c102 -33 205 -65 229 -72 l42
-12 -27 -17 c-39 -24 -63 -53 -72 -86 -7 -28 -9 -29 -82 -32 -138 -6 -245 24
-300 85 -34 36 -52 73 -90 178 -34 97 -86 211 -122 270 l-25 40 76 -3 c52 -1
115 6 192 22 144 30 250 32 305 7z m1121 -2 c60 -11 160 -23 222 -26 112 -6
112 -6 97 -27 -32 -44 -75 -136 -109 -233 -59 -171 -94 -226 -168 -264 -56
-29 -154 -49 -240 -49 -74 0 -78 1 -78 23 0 37 -36 84 -74 98 l-36 13 72 22
c40 12 143 44 228 71 l155 49 63 102 c34 57 61 106 58 110 -4 7 -27 8 -172 4
l-72 -2 -164 -147 c-90 -82 -171 -153 -178 -160 -13 -9 -15 -4 -15 36 0 37 -7
56 -28 85 l-29 37 42 70 c52 87 143 181 190 196 54 17 116 15 236 -8z m-1288
-151 c15 -13 52 -46 82 -73 113 -101 136 -122 203 -178 37 -31 66 -57 64 -57
-1 0 -110 35 -241 78 l-239 78 -54 88 c-29 49 -53 91 -53 94 0 2 48 2 106 0
93 -5 108 -8 132 -30z m1452 25 c-1 -5 -24 -46 -53 -92 l-52 -84 -234 -79
c-129 -42 -236 -76 -238 -74 -2 1 20 23 49 47 29 24 112 97 184 161 l132 117
73 4 c41 1 89 4 107 5 17 1 32 -1 32 -5z m181 -192 c76 -77 103 -146 97 -256
-7 -118 -62 -210 -167 -277 -53 -33 -67 -35 -76 -9 -4 15 5 30 38 60 130 120
143 309 32 446 -51 62 -48 55 -35 90 9 23 12 25 32 14 13 -7 48 -38 79 -68z
m-858 55 c40 -16 83 -66 92 -105 5 -25 -4 -58 -33 -113 -2 -4 9 -5 25 -2 15 3
46 -1 68 -8 124 -40 74 -255 -58 -248 -48 3 -48 3 -22 -36 36 -53 33 -98 -8
-139 -65 -65 -182 -54 -212 20 -9 19 -17 35 -20 35 -3 0 -11 -16 -19 -35 -29
-68 -109 -92 -173 -50 -59 39 -84 143 -43 180 11 10 20 21 20 24 0 3 -25 6
-55 7 -46 0 -60 5 -81 25 -53 54 -46 146 17 203 27 24 38 28 75 23 24 -2 44
-3 44 0 0 2 -10 18 -22 34 -16 21 -23 45 -23 76 0 38 5 49 32 73 67 60 179 45
214 -30 l16 -34 22 42 c21 41 60 71 94 72 10 0 32 -6 50 -14z m-1043 -103 c0
-7 -21 -32 -46 -55 -25 -23 -58 -65 -72 -93 -23 -43 -27 -62 -27 -140 0 -101
17 -149 80 -222 29 -34 34 -46 29 -72 -4 -17 -9 -31 -13 -31 -18 1 -106 76
-136 118 -48 65 -69 138 -63 226 8 118 70 213 182 276 50 29 65 27 66 -7z
m1817 -6 c48 -64 66 -114 66 -187 0 -94 -46 -193 -113 -240 l-29 -21 -21 48
c-38 86 -98 132 -202 155 l-53 12 45 8 c115 20 199 93 241 208 12 33 24 60 28
60 3 0 21 -20 38 -43z m-1793 -53 c19 -75 105 -155 184 -168 77 -14 78 -18 10
-35 -113 -29 -175 -87 -214 -202 -10 -30 -20 -56 -21 -58 -6 -9 -56 45 -78 84
-67 116 -47 260 50 362 48 50 60 53 69 17z m450 -228 c8 -44 61 -91 112 -101
l39 -7 -27 -19 c-14 -11 -102 -87 -195 -169 l-168 -149 -102 -1 c-57 0 -103 2
-103 4 0 2 24 44 54 92 l54 88 229 74 c125 41 222 77 216 79 -7 3 -27 0 -45
-6 -18 -5 -119 -37 -224 -70 l-192 -61 -60 -103 c-33 -56 -58 -106 -55 -110 3
-4 57 -7 120 -6 l116 1 131 118 c72 64 154 138 181 163 l51 45 -4 -33 c-4 -35
16 -83 47 -112 19 -18 18 -20 -22 -88 -23 -38 -69 -98 -102 -131 -90 -91 -137
-100 -331 -63 -60 11 -159 23 -220 26 l-111 6 39 62 c21 34 59 119 83 189 51
144 64 171 101 215 52 62 162 99 300 100 l82 1 6 -34z m1046 18 c120 -28 164
-79 231 -270 32 -92 88 -209 120 -256 11 -14 19 -28 19 -30 0 -1 -46 -4 -103
-4 -61 -1 -142 -10 -201 -23 -134 -29 -213 -28 -274 3 -58 29 -135 110 -186
194 l-38 63 25 19 c35 28 52 82 38 121 l-10 30 43 -38 c23 -21 106 -95 184
-165 l142 -128 115 0 c62 0 116 4 119 8 3 4 -22 54 -56 110 l-60 102 -162 51
c-88 28 -192 60 -229 72 l-68 21 35 18 c25 13 42 33 58 68 l23 50 85 0 c47 0
114 -7 150 -16z m-145 -203 l240 -79 52 -84 c28 -45 52 -86 52 -90 1 -5 -45
-8 -101 -8 l-103 1 -168 149 c-93 82 -181 159 -195 170 -15 10 -25 20 -22 20
3 0 113 -36 245 -79z m-488 -118 c3 -21 25 -130 49 -242 l44 -204 -51 -89
c-28 -48 -52 -88 -54 -88 -1 0 -25 40 -53 88 l-50 89 43 200 c24 110 47 221
50 247 8 54 15 54 22 -1z m-87 -217 l-50 -228 58 -104 c31 -57 62 -104 67
-104 6 0 36 46 67 103 l57 103 -44 210 c-25 115 -47 219 -51 232 l-7 23 37
-22 c31 -18 46 -21 90 -15 l54 6 52 -103 c44 -88 53 -115 57 -174 7 -90 -9
-124 -119 -253 -68 -80 -137 -176 -184 -256 -10 -17 -14 -14 -37 32 -28 56
-73 115 -171 225 -71 80 -95 121 -107 185 -11 60 13 162 63 261 37 73 45 83
63 77 43 -16 104 -9 127 13 12 13 23 21 25 20 1 -2 -20 -106 -47 -231z m510
-62 c38 -20 154 -26 223 -11 47 10 47 1 7 -81 -70 -139 -215 -199 -372 -153
l-47 13 30 44 c64 93 72 142 40 245 l-20 62 52 -50 c29 -28 68 -59 87 -69z
m-745 51 c-33 -108 -12 -194 70 -291 l45 -52 -32 -8 c-113 -25 -229 7 -305 86
-42 44 -83 131 -83 177 0 24 1 25 50 18 83 -11 143 9 208 70 31 29 58 52 59
51 1 -1 -4 -24 -12 -51z m1091 -90 c-23 -199 -178 -338 -360 -322 -65 5 -156
36 -194 65 -20 15 -21 20 -9 36 13 18 15 18 68 1 161 -54 328 17 400 170 16
33 29 68 29 77 0 11 10 18 28 21 15 2 31 5 36 6 5 0 6 -23 2 -54z m-1413 -10
c14 -97 80 -192 168 -240 62 -33 180 -46 243 -25 34 11 38 10 56 -12 11 -12
19 -26 20 -29 0 -4 -24 -17 -52 -30 -44 -20 -70 -24 -148 -24 -84 0 -102 3
-151 28 -31 15 -76 48 -99 73 -59 65 -83 123 -88 222 -5 82 -4 82 20 82 22 0
26 -5 31 -45z"/>
<path d="M985 1791 c-10 -12 -18 -35 -17 -52 1 -31 47 -112 82 -144 17 -16 20
-46 5 -63 -1 -1 -37 7 -79 18 -89 25 -132 20 -148 -15 -14 -31 -3 -72 23 -86
25 -13 86 -15 160 -5 84 11 86 -10 9 -90 -64 -66 -77 -106 -45 -138 54 -54
109 -15 160 111 33 80 58 84 75 11 7 -29 19 -70 28 -91 24 -61 72 -75 111 -33
33 35 22 79 -37 158 -40 54 -51 82 -37 97 2 2 42 -7 88 -19 75 -20 88 -21 113
-9 22 11 30 22 32 48 7 67 -50 91 -164 72 -58 -11 -69 -10 -83 3 -14 15 -10
21 41 74 31 31 61 67 67 79 14 28 0 68 -29 83 -50 27 -99 -16 -142 -125 -17
-42 -30 -61 -44 -63 -17 -2 -22 6 -33 63 -17 84 -46 129 -87 133 -20 2 -36 -4
-49 -17z m77 -18 c9 -10 25 -52 36 -93 19 -69 19 -75 4 -87 -15 -11 -22 -7
-50 25 -51 59 -77 118 -63 148 13 29 51 32 73 7z m282 1 c9 -8 16 -20 16 -26
0 -20 -41 -76 -81 -112 -72 -63 -95 -42 -54 50 42 95 82 125 119 88z m-113
-203 c41 -42 41 -101 -1 -143 -28 -27 -36 -30 -73 -25 -54 7 -87 43 -87 95 0
91 98 135 161 73z m-250 -38 c43 -12 63 -23 69 -37 10 -28 -3 -34 -88 -42 -86
-8 -122 8 -122 55 0 45 41 52 141 24z m499 -3 c24 -24 25 -43 4 -64 -20 -20
-53 -20 -134 3 -57 16 -65 21 -65 42 0 28 26 36 118 38 45 1 61 -3 77 -19z
m-160 -200 c44 -69 37 -120 -17 -120 -29 0 -46 28 -68 112 -15 56 -16 70 -5
83 12 14 16 13 37 -7 13 -12 37 -43 53 -68z m-197 64 c13 -4 11 -15 -9 -67
-14 -34 -38 -75 -54 -91 -26 -26 -32 -28 -55 -18 -43 20 -34 58 32 124 60 60
62 62 86 52z"/>
</g>
</svg>
